<svg width="18" height="11" viewBox="0 0 18 11" fill="none" xmlns="http://www.w3.org/2000/svg">
<path d="M14.7914 6.02276L11.5974 9.05513L11.5973 9.05516C11.4527 9.19256 11.3693 9.3812 11.3693 9.58022C11.3693 9.77923 11.4527 9.96787 11.5973 10.1053L11.5973 10.1053C11.7417 10.2424 11.9353 10.3177 12.1353 10.3177C12.3352 10.3177 12.5288 10.2424 12.6732 10.1053L17.1948 5.81122C17.2665 5.74329 17.324 5.66203 17.3634 5.57179C17.4028 5.48153 17.4233 5.38438 17.4233 5.28599C17.4233 5.18759 17.4028 5.09044 17.3634 5.00018C17.324 4.90995 17.2665 4.82868 17.1948 4.76075L12.6732 0.46669C12.5288 0.329613 12.3352 0.254296 12.1353 0.254296C11.9353 0.254296 11.7417 0.329613 11.5973 0.46669C11.4527 0.604099 11.3693 0.792737 11.3693 0.991753C11.3693 1.19077 11.4527 1.37941 11.5973 1.51682L11.5974 1.51684L14.7914 4.54921L1.96122 4.54921C1.76151 4.54921 1.56803 4.62445 1.42382 4.7614C1.27926 4.89868 1.196 5.08715 1.196 5.28599C1.196 5.48482 1.27926 5.67329 1.42382 5.81057C1.56803 5.94752 1.76151 6.02277 1.96122 6.02277L14.7914 6.02276Z" fill="#8D34FF" stroke="#8D34FF" stroke-width="0.4"/>
</svg>
