<svg width="30" height="41" viewBox="0 0 30 41" fill="none" xmlns="http://www.w3.org/2000/svg">
<path d="M6.47119 0.5H10.8106V2.31467H8.28586V4.12933H10.8106V5.944H6.47119V0.5Z" fill="black"/>
<path d="M12.8306 0.5H17.17V2.07797H14.6452V2.39357H17.17V6.0229H12.8306V4.36603H15.3553V4.05044H12.8306V0.5Z" fill="black"/>
<path d="M19.1895 0.5H23.5289V2.07797H21.0041V2.39357H23.5289V6.0229H19.1895V4.36603H21.7142V4.05044H19.1895V0.5Z" fill="black"/>
<path d="M29.3096 8.04297L26.7023 37.2511L14.9825 40.5003L3.29495 37.2557L0.69043 8.04297H29.3096Z" fill="#2196F3"/>
<path d="M6.66113 21.2656L6.98225 24.8484H14.9999L16.541 23.057L14.9999 21.2656H6.66113Z" fill="#EBEBEB"/>
<path d="M15.0001 14.0137H14.9878H6.01611L6.34181 17.5965H15.0001L16.5413 15.8051L15.0001 14.0137Z" fill="#EBEBEB"/>
<path d="M15.0002 34.298L16.5413 32.3981L15.0002 30.5704L14.9845 30.5746L10.9942 29.4971L10.7392 26.6396H8.80024H7.14258L7.64453 32.2652L14.9837 34.3026L15.0002 34.298Z" fill="#EBEBEB"/>
<path d="M19.3996 24.8492L18.9838 29.4958L14.9878 30.5744V34.3018L22.3328 32.2662L22.3867 31.6609L23.2286 22.2285L23.316 21.2664L23.9628 14.0146H14.9878V17.5975H20.0364L19.7103 21.2664H14.9878V24.8492H19.3996Z" fill="white"/>
</svg>
