<svg width="26" height="26" viewBox="0 0 26 26" fill="none" xmlns="http://www.w3.org/2000/svg">
<path d="M13.1897 0.784668C11.5075 0.784668 9.84165 1.11602 8.28743 1.7598C6.73321 2.40358 5.32101 3.34718 4.13146 4.53673C1.72905 6.93913 0.379395 10.1975 0.379395 13.595C0.379395 19.2572 4.05596 24.0611 9.14167 25.7648C9.78218 25.8673 9.98715 25.4702 9.98715 25.1243V22.9594C6.43868 23.728 5.68287 21.2428 5.68287 21.2428C5.0936 19.7568 4.26093 19.3597 4.26093 19.3597C3.09519 18.5654 4.3506 18.591 4.3506 18.591C5.63163 18.6807 6.31058 19.9105 6.31058 19.9105C7.42508 21.8577 9.3082 21.2812 10.0384 20.9738C10.1537 20.1411 10.4868 19.5774 10.8454 19.2572C8.00155 18.9369 5.01674 17.8352 5.01674 12.9545C5.01674 11.5325 5.50353 10.3924 6.3362 9.48289C6.2081 9.16263 5.75974 7.83035 6.4643 6.10096C6.4643 6.10096 7.54037 5.75508 9.98715 7.40761C10.9992 7.12579 12.1009 6.98487 13.1897 6.98487C14.2786 6.98487 15.3803 7.12579 16.3923 7.40761C18.8391 5.75508 19.9152 6.10096 19.9152 6.10096C20.6197 7.83035 20.1714 9.16263 20.0433 9.48289C20.8759 10.3924 21.3627 11.5325 21.3627 12.9545C21.3627 17.848 18.3651 18.9241 15.5084 19.2444C15.9696 19.6415 16.3923 20.4229 16.3923 21.6143V25.1243C16.3923 25.4702 16.5973 25.8801 17.2506 25.7648C22.3363 24.0482 26.0001 19.2572 26.0001 13.595C26.0001 11.9127 25.6687 10.2469 25.0249 8.6927C24.3812 7.13848 23.4376 5.72628 22.248 4.53673C21.0585 3.34718 19.6463 2.40358 18.092 1.7598C16.5378 1.11602 14.872 0.784668 13.1897 0.784668Z" fill="#1A1717"/>
</svg>
