<svg width="30" height="41" viewBox="0 0 30 41" fill="none" xmlns="http://www.w3.org/2000/svg">
<path d="M3.30469 0.5H5.12287V2.30237H6.79876V0.5H8.61694V5.95455H6.79876V4.13636H5.13868V5.95455H3.30469V0.5ZM11.0201 2.31818H9.41536V0.5H14.4509V2.31818H12.8383V5.95455H11.0201V2.31818ZM15.2494 0.5H17.1545L18.3244 2.42095L19.4944 0.5H21.3995V5.95455H19.5814V3.25099L18.3086 5.21146L17.0359 3.25099V5.95455H15.2494V0.5ZM22.3007 0.5H24.1189V4.15217H26.696V5.95455H22.3007V0.5Z" fill="black"/>
<path d="M3.26885 37.2591L0.660156 7.97852H29.34L26.7313 37.2433L14.9764 40.5003" fill="#FF4C1E"/>
<path d="M5.98828 13.9629H15.0001L16.3401 15.7574L15.0001 17.5518H9.92504L10.2571 21.2277H15.0001L16.3401 23.0893L15.0001 24.8087H6.96852L5.98828 13.9629ZM7.12662 26.6111H10.7314L10.9843 29.4807L15.0001 30.5558L16.5122 32.3471L15.0001 34.3028L7.63255 32.2475L7.12662 26.6111Z" fill="#EBEBEB"/>
<path d="M23.9804 13.9629H14.9844V17.5518H23.6484L23.9804 13.9629ZM23.3243 21.2277H14.9844V24.8166H19.4113L18.9923 29.4807L14.9844 30.5558V34.287L22.3362 32.2475L23.3243 21.2277Z" fill="white"/>
</svg>
