<svg width="40" height="41" viewBox="0 0 40 41" fill="none" xmlns="http://www.w3.org/2000/svg">
<g clip-path="url(#clip0_9_883)">
<path d="M0 0.5H40V40.5H0V0.5Z" fill="#FFDF00"/>
<path d="M26.87 31.7501C27.6757 33.0657 28.724 34.0326 30.578 34.0326C32.1354 34.0326 33.1304 33.2542 33.1304 32.1786C33.1304 30.8897 32.1082 30.4333 30.3939 29.6834L29.4542 29.2802C26.7418 28.1247 24.9399 26.677 24.9399 23.6167C24.9399 20.7976 27.0879 18.6516 30.4446 18.6516C32.8345 18.6516 34.5526 19.4833 35.7907 21.6611L32.8637 23.5405C32.2193 22.385 31.524 21.9297 30.4446 21.9297C29.3437 21.9297 28.6459 22.6282 28.6459 23.5405C28.6459 24.6682 29.3443 25.1247 30.957 25.8231L31.8967 26.2256C35.0904 27.5951 36.8935 28.9913 36.8935 32.1304C36.8935 35.5145 34.235 37.3685 30.6649 37.3685C27.1741 37.3685 24.9189 35.705 23.8154 33.5247L26.87 31.7501ZM13.5919 32.0758C14.1824 33.1235 14.7196 34.0092 16.011 34.0092C17.2459 34.0092 18.025 33.526 18.025 31.6473V18.8663H21.7837V31.698C21.7837 35.59 19.5018 37.3615 16.171 37.3615C13.1614 37.3615 11.4186 35.804 10.5322 33.9282L13.5919 32.0758Z" fill="black"/>
</g>
<defs>
<clipPath id="clip0_9_883">
<rect width="40" height="40" fill="white" transform="translate(0 0.5)"/>
</clipPath>
</defs>
</svg>
