<svg width="25" height="26" viewBox="0 0 25 26" fill="none" xmlns="http://www.w3.org/2000/svg">
<path d="M5.58048 25.7847H0.390747V9.0994H5.58048V25.7847ZM3.01351 6.81145C2.19506 6.81145 1.48822 6.51383 0.892979 5.9186C0.297741 5.32336 0.00012207 4.61651 0.00012207 3.79806C0.00012207 2.97961 0.297741 2.27276 0.892979 1.67753C1.48822 1.08229 2.19506 0.784668 3.01351 0.784668C3.53435 0.784668 4.01798 0.914876 4.46441 1.17529C4.94804 1.43571 5.32006 1.80773 5.58048 2.29136C5.8781 2.73779 6.02691 3.24003 6.02691 3.79806C6.02691 4.31889 5.8781 4.82113 5.58048 5.30476C5.32006 5.75119 4.94804 6.12321 4.46441 6.42083C4.01798 6.68125 3.53435 6.81145 3.01351 6.81145ZM25.0001 25.7847H19.8104V17.6373C19.8104 17.0049 19.7918 16.5027 19.7546 16.1306C19.7174 15.7214 19.6244 15.275 19.4756 14.7914C19.3268 14.2705 19.0477 13.8799 18.6385 13.6195C18.2665 13.3591 17.7643 13.2289 17.1318 13.2289C15.9041 13.2289 15.0671 13.6195 14.6207 14.4007C14.2114 15.182 14.0068 16.2237 14.0068 17.5257V25.7847H8.81709V9.0994H13.8394V11.3873H13.8952C14.2672 10.6433 14.8811 10.0109 15.7367 9.49002C16.5924 8.93199 17.6154 8.65297 18.8059 8.65297C20.0708 8.65297 21.1125 8.85758 21.9309 9.26681C22.7866 9.63883 23.419 10.2155 23.8282 10.9967C24.2747 11.7408 24.5723 12.5592 24.7211 13.4521C24.9071 14.3449 25.0001 15.4052 25.0001 16.6329V25.7847Z" fill="#1A1717"/>
</svg>
