<svg width="20" height="17" viewBox="0 0 20 17" fill="none" xmlns="http://www.w3.org/2000/svg">
<path fill-rule="evenodd" clip-rule="evenodd" d="M18.2798 17.0005H1.72018C0.770642 17.0005 0 16.3285 0 15.5005C0 14.6725 0.770642 14.0005 1.72018 14.0005H18.2798C19.2294 14.0005 20 14.6725 20 15.5005C20 16.3285 19.2294 17.0005 18.2798 17.0005Z" fill="#428EFF"/>
<path fill-rule="evenodd" clip-rule="evenodd" d="M18.2798 3.00049H1.72018C0.770642 3.00049 0 2.32849 0 1.50049C0 0.672488 0.770642 0.000488281 1.72018 0.000488281H18.2798C19.2294 0.000488281 20 0.672488 20 1.50049C20 2.32849 19.2294 3.00049 18.2798 3.00049Z" fill="#428EFF"/>
<path fill-rule="evenodd" clip-rule="evenodd" d="M18.2798 10.0005H1.72018C0.770642 10.0005 0 9.32849 0 8.50049C0 7.67249 0.770642 7.00049 1.72018 7.00049H18.2798C19.2294 7.00049 20 7.67249 20 8.50049C20 9.32849 19.2294 10.0005 18.2798 10.0005Z" fill="#428EFF"/>
</svg>
